<svg width="512" height="512" viewBox="0 0 512 512" fill="none" xmlns="http://www.w3.org/2000/svg">
  <rect width="512" height="512" rx="256" fill="#6847C0"/>
  <path d="M384 256C384 326.692 326.692 384 256 384C185.308 384 128 326.692 128 256C128 185.308 185.308 128 256 128C326.692 128 384 185.308 384 256ZM170.667 256C170.667 303.019 208.981 341.333 256 341.333C303.019 341.333 341.333 303.019 341.333 256C341.333 208.981 303.019 170.667 256 170.667C208.981 170.667 170.667 208.981 170.667 256Z" fill="white"/>
  <path d="M256 213.333C277.673 213.333 295.111 230.771 295.111 252.444C295.111 274.117 277.673 291.556 256 291.556C234.327 291.556 216.889 274.117 216.889 252.444C216.889 230.771 234.327 213.333 256 213.333Z" fill="white"/>
</svg>